{"title":"Hunting Hitler S01E05 (2015) x264","uid":12834540,"size":373557195,"categoryP":"video","categoryS":"tv_shows","magnet":"?xt=urn:btih:87b5e32360e7383286334ccb9e653aced7d1c1ed&amp;dn=Hunting+Hitler+S01E05+%282015%29+x264&amp;tr=udp%3A%2F%2Ftracker.leechers-paradise.org%3A6969&amp;tr=udp%3A%2F%2Fzer0day.ch%3A1337&amp;tr=udp%3A%2F%2Fopen.demonii.com%3A1337&amp;tr=udp%3A%2F%2Ftracker.coppersurfer.tk%3A6969&amp;tr=udp%3A%2F%2Fexodus.desync.com%3A6969","seeders":1,"leechers":0,"uploader":"Pyre8Storm","files":1,"time":1448430702,"description":"Ratlines\r\n\r\nLenny DePaul and Gerrard Williams discover the presence of escaping Nazi soldiers at the Samos Monastery, as well as an eyewitness placing Hitler at the same monastery. Speaking with the eyewitness the investigation is pointed to a possible plane landing site as well as a German run radio tower and landing strip in the area. After looking into both sites and finding rudimentary GPS equipment, the team concludes that Hitler could have landed, traveled through, and exited Spain towards South America.\r\n\r\n\r\nScreens: \r\n \nhttp://extraimago.com/image/YqB\r\n\r\n\r\nFormat                                   : MPEG-4\r\nFormat profile                           : Base Media / Version 2\r\nCodec ID                                 : mp42\r\nFile size                                : 356 MiB\r\nDuration                                 : 40mn 28s\r\nOverall bit rate mode                    : Variable\r\nOverall bit rate                         : 1 231 Kbps\r\nVideo\r\nID                                       : 1\r\nFormat                                   : AVC\r\nFormat/Info                              : Advanced Video Codec\r\nCodec ID                                 : avc1\r\nCodec ID/Info                            : Advanced Video Coding\r\nDuration                                 : 40mn 28s\r\nDuration_FirstFrame                      : 320ms\r\nBit rate                                 : 1 097 Kbps\r\nWidth                                    : 1 280 pixels\r\nHeight                                   : 720 pixels\r\nDisplay aspect ratio                     : 16:9\r\nFrame rate mode                          : Constant\r\nFrame rate                               : 25.000 fps\r\nBits/(Pixel*Frame)                       : 0.048\r\nStream size                              : 317 MiB (89%)\r\n\r\nAudio\r\nID                                       : 2\r\nFormat                                   : AAC\r\nFormat/Info                              : Advanced Audio Codec\r\nFormat profile                           : LC\r\nCodec ID                                 : 40\r\nDuration                                 : 40mn 28s\r\nBit rate mode                            : Variable\r\nBit rate                                 : 128 Kbps\r\nChannel(s)                               : 2 channels\r\nChannel positions                        : Front: L R\r\nSampling rate                            : 48.0 KHz\r\nCompression mode                         : Lossy\r\nStream size                              : 37.0 MiB (10%)\r\nTitle                                    : Stereo\r\n\r\n\r\n\r\nPlease seed for others","torrent":{"xt":"urn:btih:87b5e32360e7383286334ccb9e653aced7d1c1ed","amp;dn":"Hunting+Hitler+S01E05+%282015%29+x264","amp;tr":["udp%3A%2F%2Ftracker.leechers-paradise.org%3A6969","udp%3A%2F%2Fzer0day.ch%3A1337","udp%3A%2F%2Fopen.demonii.com%3A1337","udp%3A%2F%2Ftracker.coppersurfer.tk%3A6969","udp%3A%2F%2Fexodus.desync.com%3A6969"],"infoHash":"87b5e32360e7383286334ccb9e653aced7d1c1ed","infoHashBuffer":{"type":"Buffer","data":[135,181,227,35,96,231,56,50,134,51,76,203,158,101,58,206,215,209,193,237]},"announce":[],"urlList":[]}}